<svg xmlns="http://www.w3.org/2000/svg" width="50" height="45.00005"><defs><clipPath id="a"><path d="M0 36h36V0H0v36z"/></clipPath><clipPath id="b"><path d="M0 36h36V0H0v36z"/></clipPath></defs><g transform="translate(-103,-949.86211)"><g fill="#ffcc00" transform="matrix(1.25,0,0,-1.25,105.49986,994.86216) matrix(1,0,0,1.0093397,0,-0.33622916)" clip-path="url(#a)"><path d="M33.1885 4.625c-2.73-.91-6.425 5.626-4.812 10.578 1.646 3.243 2.623 6.857 2.623 9.797 0 7.18-5.82 11-13 11-7.179 0-13-3.82-13-11 0-2.94.978-6.554 2.624-9.797 1.613-4.952-2.082-11.488-4.812-10.578-3 1-4-3-1-4s8.31.627 12 4c2.188 2 4.188 2 4.188 2s2 0 4.189-2c3.69-3.373 9-5 12-4s2 5-1 4"/></g><ellipse cx="128" cy="977.36218" fill="none" stroke="#ffffff" stroke-width="1.10000002" rx="24.450001" ry="6.9500003" stroke-linejoin="round"/><g transform="matrix(1.25,0,0,-1.25,105.50063,994.86211)"><g fill="#ffcc00" transform="matrix(1,0,0,1.0093397,0,-0.33622916)" clip-path="url(#b)"><path d="M28.3765 15.203c1.646 3.243 2.623 6.857 2.623 9.797 0 7.18-5.82 11-13 11-7.179 0-13-3.82-13-11 0-2.94.978-6.554 2.624-9.797"/></g><circle cx="12.2" cy="-21" r="5" fill="#ffffff" transform="scale(1,-1)"/><circle cx="23.799999" cy="-21" r="5" fill="#ffffff" transform="scale(1,-1)"/><circle cx="12.2" cy="-21" r="2.5" fill="#000000" transform="scale(1,-1)"/><circle cx="23.799999" cy="-21" r="2.5" fill="#000000" transform="scale(1,-1)"/></g><circle cx="149" cy="980.36218" r="4" fill="#ffdd55"/></g></svg>